# xmcd
# Track frame offsets:
# 150
# 18873
# 39655
# 53721
# 68151
# 80668
# 96544
# 113711
# 126589
# 139251
# 150795
# 167665
# 180952
# 195439
# 210094
#
# Disc length: 3019 seconds
# Revision: 0
# Processed by: cddbd v1.5.1PL0 Copyright (c) Steve Scherf et al.
# Submitted via: VisiTrax 2.9.5.181 - For more info visit www.synapsa.com
#
DISCID=be0bc90f
DTITLE=Various Artist - Good Old Aussie Country [CD2]
DYEAR=2001
DGENRE=Country
TTITLE0=Brian Cadd - Ginger Man
TTITLE1=Liv Maessen - Little Green Apples
TTITLE2=Matt Flinders - By The Time I Get To Phoenix
TTITLE3=Johnny Chester - Once I Was A Truck Driving Man
TTITLE4=Nola Francis - Delta Dawn
TTITLE5=Cash Backman - My Girl Bill
TTITLE6=Denise Morrison - Tar And Cement
TTITLE7=Bluestone - Wind And Rain
TTITLE8=Hans Poulsen - There's A Light Across The Valley
TTITLE9=Bobby and Laurie - Through The Eyes Of Love
TTITLE10=Bluestone - Road To Nowhere
TTITLE11=Ken Brumby - Maggie
TTITLE12=The Bushwacker Band - The Shores Of Botany Bay
TTITLE13=Denise Morrison - No Charge
TTITLE14=Colleen Hewett - When I Dream
EXTD=
EXTT0=
EXTT1=
EXTT2=
EXTT3=
EXTT4=
EXTT5=
EXTT6=
EXTT7=
EXTT8=
EXTT9=
EXTT10=
EXTT11=
EXTT12=
EXTT13=
EXTT14=
PLAYORDER=
